<svg xmlns="http://www.w3.org/2000/svg" version="1.1" xmlns:xlink="http://www.w3.org/1999/xlink" xmlns:svgjs="http://svgjs.dev/svgjs" width="1280" height="720" preserveAspectRatio="none" viewBox="0 0 1280 720"><g mask="url(&quot;#SvgjsMask3008&quot;)" fill="none"><rect width="1280" height="720" x="0" y="0" fill="url(&quot;#SvgjsLinearGradient3009&quot;)"></rect><path d="M1280 0L1152.73 0L1280 137.26z" fill="rgba(255, 255, 255, .1)"></path><path d="M1152.73 0L1280 137.26L1280 412.5L1044.56 0z" fill="rgba(255, 255, 255, .075)"></path><path d="M1044.56 0L1280 412.5L1280 525.91L799.6899999999999 0z" fill="rgba(255, 255, 255, .05)"></path><path d="M799.69 0L1280 525.91L1280 545.18L260.36 0z" fill="rgba(255, 255, 255, .025)"></path><path d="M0 720L203.19 720L0 663.38z" fill="rgba(0, 0, 0, .1)"></path><path d="M0 663.38L203.19 720L552.69 720L0 341.45z" fill="rgba(0, 0, 0, .075)"></path><path d="M0 341.45L552.69 720L853.0500000000001 720L0 216.79999999999998z" fill="rgba(0, 0, 0, .05)"></path><path d="M0 216.79999999999995L853.0500000000001 720L1019.0300000000001 720L0 171.87999999999994z" fill="rgba(0, 0, 0, .025)"></path></g><defs><mask id="SvgjsMask3008"><rect width="1280" height="720" fill="#ffffff"></rect></mask><linearGradient x1="50%" y1="0%" x2="50%" y2="100%" gradientUnits="userSpaceOnUse" id="SvgjsLinearGradient3009"><stop stop-color="rgba(255, 215, 205, 1)" offset="0"></stop><stop stop-color="rgba(145, 99, 97, 1)" offset="0.49"></stop><stop stop-color="rgba(74, 39, 30, 1)" offset="1"></stop></linearGradient></defs></svg>